<svg width="242" height="22" viewBox="0 0 242 22" fill="none" xmlns="http://www.w3.org/2000/svg">
<path d="M3.768 11.984C3.768 13.2347 4.02 14.3173 4.524 15.232C5.028 16.1467 5.74667 16.856 6.68 17.36C7.632 17.8453 8.76133 18.088 10.068 18.088C11.3933 18.088 12.5227 17.8453 13.456 17.36C14.3893 16.856 15.108 16.1467 15.612 15.232C16.116 14.3173 16.368 13.2347 16.368 11.984V-1.66893e-06H20.064V12.124C20.064 13.972 19.644 15.596 18.804 16.996C17.964 18.3773 16.7973 19.46 15.304 20.244C13.8107 21.0093 12.0653 21.392 10.068 21.392C8.08933 21.392 6.344 21.0093 4.832 20.244C3.33867 19.46 2.172 18.3773 1.332 16.996C0.492 15.596 0.072 13.972 0.072 12.124V-1.66893e-06H3.768V11.984ZM42.8365 18.76L41.3245 18.928V-1.66893e-06H44.9085V21H40.2045L25.4765 2.072L26.9605 1.904V21H23.3765V-1.66893e-06H28.1925L42.8365 18.76ZM57.9712 -1.66893e-06C60.3605 -1.66893e-06 62.4512 0.438665 64.2432 1.316C66.0539 2.19333 67.4632 3.42533 68.4712 5.012C69.4792 6.58 69.9832 8.40933 69.9832 10.5C69.9832 12.5907 69.4792 14.4293 68.4712 16.016C67.4632 17.584 66.0539 18.8067 64.2432 19.684C62.4512 20.5613 60.3605 21 57.9712 21H48.4792V-1.66893e-06H57.9712ZM52.1752 19.712L50.1312 17.752H58.2232C59.8285 17.752 61.2285 17.4533 62.4232 16.856C63.6365 16.24 64.5699 15.3907 65.2232 14.308C65.8952 13.2067 66.2312 11.9373 66.2312 10.5C66.2312 9.044 65.8952 7.77467 65.2232 6.692C64.5699 5.60933 63.6365 4.76933 62.4232 4.172C61.2285 3.556 59.8285 3.248 58.2232 3.248H50.1312L52.1752 1.288V19.712ZM89.0413 8.96V12.04H74.3693V8.96H89.0413ZM76.8053 10.5L75.3213 19.88L73.5573 17.808H89.8533V21H71.5413L73.2213 10.5L71.5413 -1.66893e-06H89.7133V3.192H73.5573L75.3213 1.12L76.8053 10.5ZM95.1628 9.464H103.703C104.935 9.464 105.906 9.184 106.615 8.624C107.343 8.064 107.707 7.29867 107.707 6.328C107.707 5.33867 107.343 4.57333 106.615 4.032C105.906 3.472 104.935 3.192 103.703 3.192H94.6308L96.2828 1.12V21H92.5868V-1.66893e-06H104.039C105.514 -1.66893e-06 106.802 0.270665 107.903 0.812C109.023 1.33467 109.891 2.072 110.507 3.024C111.142 3.95733 111.459 5.05867 111.459 6.328C111.459 7.56 111.142 8.652 110.507 9.604C109.891 10.5373 109.023 11.2747 107.903 11.816C106.802 12.3387 105.514 12.6 104.039 12.6H95.1628V9.464ZM99.3068 11.172H103.647L111.991 21H107.567L99.3068 11.172ZM125.278 -1.66893e-06C126.846 -1.66893e-06 128.199 0.279999 129.338 0.839999C130.495 1.4 131.382 2.184 131.998 3.192C132.633 4.18133 132.95 5.32933 132.95 6.636C132.95 7.94267 132.633 9.1 131.998 10.108C131.382 11.0973 130.495 11.872 129.338 12.432C128.199 12.992 126.846 13.272 125.278 13.272H115.842V10.08H125.138C126.407 10.08 127.397 9.772 128.106 9.156C128.834 8.54 129.198 7.7 129.198 6.636C129.198 5.572 128.834 4.732 128.106 4.116C127.397 3.5 126.407 3.192 125.138 3.192H116.206L117.858 1.344V21H114.162V-1.66893e-06H125.278ZM135.037 16.184V13.132H149.709V16.184H135.037ZM144.781 -1.66893e-06L154.861 21H150.913L141.757 1.4H143.185L134.029 21H130.081L140.161 -1.66893e-06H144.781ZM160.043 21V10.976H163.739V21H160.043ZM150.131 -1.66893e-06H154.303L162.871 10.752H160.883L169.451 -1.66893e-06H173.623L163.067 13.244L160.715 13.272L150.131 -1.66893e-06ZM172.957 21.224C172.527 21.224 172.135 21.1213 171.781 20.916C171.445 20.7107 171.174 20.44 170.969 20.104C170.763 19.7493 170.661 19.3573 170.661 18.928C170.661 18.4987 170.763 18.116 170.969 17.78C171.174 17.4253 171.445 17.1453 171.781 16.94C172.135 16.7347 172.527 16.632 172.957 16.632C173.386 16.632 173.769 16.7347 174.105 16.94C174.459 17.1453 174.739 17.4253 174.945 17.78C175.15 18.116 175.253 18.4987 175.253 18.928C175.253 19.3573 175.15 19.7493 174.945 20.104C174.739 20.44 174.459 20.7107 174.105 20.916C173.769 21.1213 173.386 21.224 172.957 21.224ZM197.255 18.76L195.743 18.928V-1.66893e-06H199.327V21H194.623L179.895 2.072L181.379 1.904V21H177.795V-1.66893e-06H182.611L197.255 18.76ZM219.67 8.96V12.04H204.998V8.96H219.67ZM207.434 10.5L205.95 19.88L204.186 17.808H220.482V21H202.17L203.85 10.5L202.17 -1.66893e-06H220.342V3.192H204.186L205.95 1.12L207.434 10.5ZM229.609 1.708H233.305V21H229.609V1.708ZM220.929 -1.66893e-06H241.985V3.248H220.929V-1.66893e-06Z" fill="white"/>
</svg>
