<svg width="32" height="31" viewBox="0 0 32 31" fill="none" xmlns="http://www.w3.org/2000/svg">
<g id="Group">
<g id="Group_2">
<path id="Path" d="M27.52 20.498L22.0249 15.0029C21.5245 14.5024 20.7142 14.5024 20.215 15.0029L14.72 20.498" stroke="#222222" stroke-width="1.5" stroke-linecap="round" stroke-linejoin="round"/>
<path id="Path_2" fill-rule="evenodd" clip-rule="evenodd" d="M23.68 26.8979H8.31998C6.19902 26.8979 4.47998 25.1789 4.47998 23.0579V7.69791C4.47998 5.57695 6.19902 3.85791 8.31998 3.85791H23.68C25.8009 3.85791 27.52 5.57695 27.52 7.69791V23.0579C27.52 25.1789 25.8009 26.8979 23.68 26.8979Z" stroke="#222222" stroke-width="1.5" stroke-linecap="round" stroke-linejoin="round"/>
<path id="Path_3" d="M21.1199 26.8979L13.0649 18.8429C12.5644 18.3424 11.7541 18.3424 11.2549 18.8429L5.05078 25.047" stroke="#222222" stroke-width="1.5" stroke-linecap="round" stroke-linejoin="round"/>
<path id="Path_4" d="M12.4994 11.1985C12.6869 11.386 12.6869 11.6899 12.4994 11.8774C12.312 12.0648 12.0081 12.0648 11.8206 11.8774C11.6332 11.6899 11.6332 11.386 11.8206 11.1985C12.0081 11.0111 12.312 11.0111 12.4994 11.1985" stroke="#222222" stroke-width="1.5" stroke-linecap="round" stroke-linejoin="round"/>
</g>
</g>
</svg>
